<svg width="261" height="261" viewBox="0 0 261 261" fill="none" xmlns="http://www.w3.org/2000/svg">
<g filter="url(#filter0_d_18_61)">
<path d="M239 3C248.941 3 257 11.0589 257 21V238C257 247.941 248.941 256 239 256H22C12.0589 256 4 247.941 4 238V21C4 11.0589 12.0589 3 22 3H239ZM43.1699 115.398C43.0706 115.399 42.9714 115.449 42.8721 115.548C41.8777 116.592 40.3116 117.81 38.1738 119.202C36.0856 120.545 33.0772 121.862 29.1494 123.154C28.8015 123.254 28.528 123.378 28.3291 123.527C28.1302 123.627 28.0303 123.826 28.0303 124.124V126.66C28.0304 127.257 28.3293 127.579 28.9258 127.629C30.3178 127.778 31.3126 128.276 31.9092 129.121C32.5057 129.966 32.8782 130.961 33.0273 132.104C33.2262 133.248 33.3262 134.392 33.3262 135.535V155.373C33.3262 157.411 33.2507 159.301 33.1016 161.041C32.9524 162.781 32.5555 164.174 31.9092 165.218C31.2628 166.262 30.1682 166.783 28.627 166.783C27.2847 166.783 26.2409 166.385 25.4951 165.59C24.7494 164.844 24.227 163.875 23.9287 162.682C23.6304 161.538 23.4815 160.37 23.4814 159.177C23.4814 158.779 23.4067 158.506 23.2578 158.356C23.059 158.207 22.8599 158.133 22.6611 158.133C22.4623 158.133 22.1142 158.306 21.6172 158.654L16.8438 162.085C16.2968 162.483 16.0234 163.005 16.0234 163.651C16.0235 163.999 16.2225 164.571 16.6201 165.366C17.0179 166.162 17.6891 166.983 18.6338 167.828C19.5287 168.673 20.7716 169.394 22.3623 169.99C23.9036 170.637 25.8184 170.96 28.1055 170.96C31.3868 170.96 34.022 170.339 36.0107 169.096C38.0492 167.853 39.6152 166.187 40.709 164.099C41.8028 162.06 42.5485 159.823 42.9463 157.387C43.344 155 43.543 152.663 43.543 150.376V115.548C43.543 115.448 43.493 115.398 43.3936 115.398H43.1699ZM121.651 116.517C121.005 116.517 120.682 116.766 120.682 117.263V117.636C120.731 117.735 120.781 117.909 120.831 118.157C120.98 118.605 121.055 118.904 121.055 119.053C121.055 119.251 120.98 119.351 120.831 119.351C120.732 119.351 120.582 119.301 120.384 119.202C119.688 118.804 118.444 118.307 116.654 117.71C114.864 117.064 112.801 116.74 110.464 116.74C106.536 116.74 103.429 117.71 101.142 119.649C98.8548 121.588 97.711 124.049 97.7109 127.032C97.7109 128.126 97.86 129.27 98.1582 130.463C98.5062 131.606 99.153 132.775 100.098 133.969C101.042 135.112 102.459 136.206 104.349 137.25C106.238 138.244 108.774 139.139 111.956 139.935C113.696 140.332 115.411 140.805 117.102 141.352C118.842 141.898 120.284 142.595 121.428 143.44C122.621 144.286 123.218 145.355 123.218 146.647C123.218 149.481 120.83 150.898 116.058 150.898C113.025 150.898 110.042 150.127 107.108 148.586C104.225 147.045 101.564 144.46 99.1279 140.83C98.8793 140.383 98.6059 140.158 98.3076 140.158C98.1585 140.158 97.9349 140.234 97.6367 140.383L95.3242 141.725C94.9266 141.973 94.7285 142.272 94.7285 142.62C94.7286 142.769 94.8031 142.993 94.9521 143.291L101.365 155.298C101.664 155.795 102.087 156.044 102.634 156.044H105.318C105.915 156.044 106.213 155.845 106.213 155.447C106.213 155.348 106.164 155.149 106.064 154.851C105.965 154.552 105.915 154.353 105.915 154.254C105.915 153.906 106.09 153.732 106.438 153.732C106.587 153.733 106.81 153.807 107.108 153.956C108.401 154.553 109.768 155.025 111.21 155.373C112.702 155.771 114.218 155.97 115.76 155.97C118.991 155.97 121.776 155.447 124.112 154.403C126.449 153.309 128.239 151.843 129.482 150.003C130.775 148.163 131.421 146.075 131.421 143.738C131.421 141.551 130.9 139.736 129.855 138.294C128.861 136.852 127.543 135.659 125.902 134.715C124.262 133.72 122.447 132.925 120.458 132.328C118.519 131.731 116.58 131.209 114.641 130.762C113.298 130.414 111.981 130.016 110.688 129.568C109.396 129.121 108.327 128.549 107.481 127.854C106.686 127.108 106.288 126.188 106.288 125.094C106.288 123.652 106.835 122.657 107.929 122.11C109.023 121.563 110.216 121.29 111.509 121.29C113.299 121.29 115.412 121.861 117.848 123.005C120.284 124.148 122.621 126.138 124.858 128.972C125.157 129.32 125.48 129.494 125.828 129.494C126.027 129.494 126.275 129.419 126.573 129.271L128.214 128.375C128.612 128.176 128.811 127.903 128.811 127.555C128.811 127.356 128.736 127.107 128.587 126.809L124.858 117.337C124.659 116.79 124.236 116.517 123.59 116.517H121.651ZM48.2969 117.71C47.5511 117.71 47.1777 118.083 47.1777 118.829V121.066C47.1778 121.812 47.5511 122.185 48.2969 122.185H48.5947C50.4342 122.185 51.8013 122.856 52.6963 124.198C53.641 125.541 54.1133 127.232 54.1133 129.271V141.575C54.1133 143.365 54.2632 145.131 54.5615 146.871C54.9096 148.561 55.5309 150.103 56.4258 151.495C57.3207 152.837 58.5889 153.931 60.2295 154.776C61.9199 155.572 64.1074 155.97 66.792 155.97C69.0791 155.97 71.0928 155.472 72.833 154.478C74.6228 153.433 76.1399 152.166 77.3828 150.675C78.6258 149.183 79.5949 147.741 80.291 146.349C79.8435 149.73 79.5202 152.117 79.3213 153.509C79.1722 154.851 79.0977 155.597 79.0977 155.746C79.0977 155.895 79.1477 155.97 79.2471 155.97H79.3965C79.5952 155.97 79.7944 155.92 79.9932 155.82C81.1366 155.323 82.2804 154.875 83.4238 154.478C84.6169 154.03 86.0089 153.682 87.5996 153.434C89.2404 153.135 91.2796 152.986 93.7158 152.986C94.4116 152.986 94.7597 152.638 94.7598 151.942V149.481C94.7598 149.233 94.7097 149.034 94.6104 148.885C94.5606 148.686 94.337 148.561 93.9395 148.512C92.597 148.363 91.6024 147.865 90.9561 147.02C90.3596 146.125 89.9616 145.056 89.7627 143.813C89.6135 142.521 89.5391 141.227 89.5391 139.935V118.829C89.5391 118.083 89.1657 117.71 88.4199 117.71H73.4297C72.6839 117.71 72.3115 118.083 72.3115 118.829V121.066C72.3116 121.812 72.684 122.185 73.4297 122.185H73.5791C75.3688 122.185 76.7115 122.856 77.6064 124.198C78.5511 125.541 79.0234 127.232 79.0234 129.271V143.067C78.6257 144.111 77.929 145.131 76.9346 146.125C75.9899 147.07 74.8962 147.865 73.6533 148.512C72.4105 149.108 71.1676 149.406 69.9248 149.406C68.3835 149.406 67.2145 149.083 66.4189 148.437C65.6734 147.741 65.1763 146.846 64.9277 145.752C64.6792 144.609 64.5547 143.366 64.5547 142.023V118.829C64.5547 118.083 64.182 117.71 63.4365 117.71H48.2969ZM147.803 105.031C147.654 105.031 147.529 105.081 147.43 105.181C146.038 106.573 144.446 107.816 142.656 108.91C140.867 109.954 139.425 110.774 138.331 111.371C137.884 111.62 137.659 112.068 137.659 112.714V117.71H132.216C131.47 117.71 131.097 118.083 131.097 118.829V121.066C131.097 121.812 131.47 122.185 132.216 122.185C134.005 122.185 135.273 122.608 136.019 123.453C136.814 124.298 137.286 125.392 137.436 126.734C137.585 128.027 137.659 129.345 137.659 130.688V144.484C137.659 147.418 138.057 149.73 138.853 151.42C139.648 153.061 140.693 154.23 141.985 154.926C143.328 155.622 144.745 155.97 146.236 155.97C148.126 155.97 150.015 155.622 151.904 154.926C153.794 154.18 155.41 153.384 156.752 152.539L158.989 151.122C159.387 150.874 159.586 150.6 159.586 150.302C159.586 150.053 159.511 149.829 159.362 149.63L158.169 147.691C157.92 147.294 157.647 147.095 157.349 147.095C157.15 147.095 156.876 147.194 156.528 147.393C155.733 147.89 154.863 148.388 153.918 148.885C152.973 149.332 152.079 149.556 151.233 149.556C150.339 149.556 149.593 149.208 148.996 148.512C148.399 147.766 148.101 146.423 148.101 144.484V123.154H158.095C158.84 123.154 159.213 122.782 159.213 122.036V118.829C159.213 118.083 158.84 117.71 158.095 117.71H148.101V105.256C148.101 105.107 148.051 105.031 147.951 105.031H147.803ZM177.254 115.398C177.154 115.398 177.055 115.448 176.955 115.548C175.961 116.592 174.394 117.81 172.257 119.202C170.169 120.545 167.16 121.862 163.232 123.154C162.885 123.254 162.611 123.378 162.412 123.527C162.213 123.627 162.114 123.826 162.114 124.124V126.66C162.114 127.256 162.413 127.579 163.009 127.629C164.401 127.778 165.396 128.276 165.992 129.121C166.589 129.966 166.962 130.961 167.111 132.104C167.31 133.248 167.409 134.392 167.409 135.535V143.44C167.409 145.429 166.961 147.12 166.066 148.512C165.221 149.854 163.879 150.525 162.04 150.525H161.891C161.145 150.525 160.772 150.898 160.771 151.644V153.881C160.771 154.627 161.195 155 162.04 155H183.146C183.991 155 184.413 154.627 184.413 153.881V151.644C184.413 150.898 184.04 150.525 183.295 150.525H183.071C181.232 150.525 179.864 149.829 178.969 148.437C178.074 147.044 177.627 145.354 177.627 143.365V115.548C177.627 115.448 177.577 115.398 177.478 115.398H177.254ZM203.61 115.398C203.461 115.398 203.262 115.498 203.014 115.696C202.019 116.392 200.229 117.313 197.644 118.456C195.108 119.6 192.05 120.445 188.471 120.992C187.775 121.141 187.427 121.464 187.427 121.961V124.497C187.427 125.094 187.7 125.417 188.247 125.467C189.639 125.616 190.633 126.138 191.229 127.032C191.876 127.877 192.274 128.922 192.423 130.165C192.622 131.408 192.722 132.701 192.722 134.043V143.44C192.722 145.429 192.274 147.12 191.379 148.512C190.484 149.854 189.117 150.525 187.277 150.525H187.128C186.382 150.525 186.01 150.898 186.01 151.644V153.881C186.01 154.627 186.382 155 187.128 155H208.085C208.831 155 209.203 154.627 209.203 153.881V151.644C209.203 150.898 208.831 150.525 208.085 150.525H207.936C206.494 150.525 205.326 149.854 204.431 148.512C203.585 147.12 203.163 145.429 203.163 143.44V129.718C203.611 128.624 204.306 127.605 205.251 126.66C206.196 125.666 207.289 124.87 208.532 124.273C209.775 123.627 211.019 123.304 212.262 123.304C214.35 123.304 215.767 123.951 216.513 125.243C217.258 126.486 217.631 128.301 217.631 130.688V143.44C217.631 146.175 217.307 148.039 216.661 149.033C216.015 150.028 215.17 150.525 214.126 150.525H213.604C212.858 150.525 212.485 150.898 212.485 151.644V153.881C212.485 154.627 212.858 155 213.604 155H233.442C234.188 155 234.561 154.627 234.561 153.881V151.644C234.56 150.898 234.188 150.526 233.442 150.525H232.846C231.404 150.525 230.235 150.028 229.34 149.033C228.495 148.039 228.072 146.175 228.072 143.44V130.688C228.072 128.947 227.898 127.256 227.55 125.615C227.251 123.975 226.656 122.483 225.761 121.141C224.916 119.798 223.647 118.729 221.957 117.934C220.267 117.138 218.078 116.74 215.394 116.74C213.156 116.74 211.192 117.238 209.502 118.232C207.811 119.177 206.395 120.321 205.251 121.663C204.107 122.956 203.187 124.174 202.491 125.317L203.76 116.145C203.809 115.847 203.834 115.647 203.834 115.548C203.834 115.448 203.784 115.398 203.685 115.398H203.61ZM38.3223 99.8115C37.0794 99.8116 35.8366 100.433 34.5938 101.676C33.3509 102.919 32.7296 104.161 32.7295 105.404C32.7295 106.697 33.3508 107.941 34.5938 109.134C35.8863 110.377 37.1291 110.998 38.3223 110.998C39.6149 110.998 40.883 110.377 42.126 109.134C43.369 107.891 43.9902 106.647 43.9902 105.404C43.9901 104.161 43.3689 102.919 42.126 101.676C40.883 100.433 39.615 99.8115 38.3223 99.8115ZM172.63 99.8115C171.387 99.8115 170.144 100.433 168.901 101.676C167.658 102.919 167.036 104.161 167.036 105.404C167.036 106.697 167.658 107.941 168.901 109.134C170.194 110.377 171.437 110.998 172.63 110.998C173.923 110.998 175.191 110.377 176.434 109.134C177.677 107.891 178.298 106.647 178.298 105.404C178.298 104.161 177.676 102.919 176.434 101.676C175.191 100.433 173.923 99.8115 172.63 99.8115Z" fill="url(#paint0_linear_18_61)"/>
</g>
<defs>
<filter id="filter0_d_18_61" x="0" y="0" width="261" height="261" filterUnits="userSpaceOnUse" color-interpolation-filters="sRGB">
<feFlood flood-opacity="0" result="BackgroundImageFix"/>
<feColorMatrix in="SourceAlpha" type="matrix" values="0 0 0 0 0 0 0 0 0 0 0 0 0 0 0 0 0 0 127 0" result="hardAlpha"/>
<feOffset dy="1"/>
<feGaussianBlur stdDeviation="2"/>
<feComposite in2="hardAlpha" operator="out"/>
<feColorMatrix type="matrix" values="0 0 0 0 0 0 0 0 0 0 0 0 0 0 0 0 0 0 0.25 0"/>
<feBlend mode="normal" in2="BackgroundImageFix" result="effect1_dropShadow_18_61"/>
<feBlend mode="normal" in="SourceGraphic" in2="effect1_dropShadow_18_61" result="shape"/>
</filter>
<linearGradient id="paint0_linear_18_61" x1="130.5" y1="3" x2="130.5" y2="256" gradientUnits="userSpaceOnUse">
<stop stop-color="#E2FF70"/>
<stop offset="1" stop-color="#60FAFF"/>
</linearGradient>
</defs>
</svg>
